<svg width="54" height="10" viewBox="0 0 54 10" fill="none" xmlns="http://www.w3.org/2000/svg">
<path d="M2.688 1.488C3.632 1.488 4.364 1.684 4.884 2.076C5.404 2.46 5.664 3.092 5.664 3.972C5.664 4.86 5.4 5.504 4.872 5.904C4.352 6.296 3.612 6.492 2.652 6.492H2.124V9H0.648V1.668C0.792 1.636 0.952 1.608 1.128 1.584C1.312 1.56 1.496 1.544 1.68 1.536C1.864 1.52 2.044 1.508 2.22 1.5C2.396 1.492 2.552 1.488 2.688 1.488ZM2.856 2.772C2.768 2.772 2.644 2.776 2.484 2.784C2.332 2.784 2.212 2.792 2.124 2.808V5.208H2.724C3.196 5.208 3.552 5.116 3.792 4.932C4.032 4.74 4.152 4.416 4.152 3.96C4.152 3.528 4.032 3.224 3.792 3.048C3.56 2.864 3.248 2.772 2.856 2.772ZM6.756 9V0.924L8.232 0.672V3.408C8.352 3.368 8.496 3.332 8.664 3.3C8.832 3.26 8.98 3.24 9.108 3.24C9.524 3.24 9.872 3.304 10.152 3.432C10.432 3.552 10.656 3.728 10.824 3.96C10.992 4.184 11.112 4.456 11.184 4.776C11.256 5.088 11.292 5.436 11.292 5.82V9H9.816V6.012C9.816 5.484 9.756 5.104 9.636 4.872C9.516 4.64 9.288 4.524 8.952 4.524C8.816 4.524 8.68 4.54 8.544 4.572C8.416 4.604 8.312 4.632 8.232 4.656V9H6.756ZM17.664 6.168C17.664 6.616 17.6 7.024 17.472 7.392C17.344 7.752 17.164 8.064 16.932 8.328C16.7 8.592 16.42 8.796 16.092 8.94C15.772 9.084 15.412 9.156 15.012 9.156C14.612 9.156 14.248 9.084 13.92 8.94C13.6 8.796 13.32 8.592 13.08 8.328C12.848 8.064 12.668 7.752 12.54 7.392C12.412 7.024 12.348 6.616 12.348 6.168C12.348 5.728 12.412 5.328 12.54 4.968C12.676 4.6 12.86 4.288 13.092 4.032C13.332 3.768 13.616 3.568 13.944 3.432C14.272 3.288 14.628 3.216 15.012 3.216C15.404 3.216 15.76 3.288 16.08 3.432C16.408 3.568 16.688 3.768 16.92 4.032C17.16 4.288 17.344 4.6 17.472 4.968C17.6 5.328 17.664 5.728 17.664 6.168ZM13.848 6.18C13.848 6.684 13.936 7.092 14.112 7.404C14.296 7.716 14.588 7.872 14.988 7.872C15.372 7.872 15.66 7.716 15.852 7.404C16.052 7.092 16.152 6.684 16.152 6.18C16.152 5.676 16.06 5.272 15.876 4.968C15.7 4.656 15.412 4.5 15.012 4.5C14.628 4.5 14.336 4.656 14.136 4.968C13.944 5.272 13.848 5.676 13.848 6.18Z" fill="#F48FB1"/>
<path d="M23.7 1.572V2.796H21.744V9H20.256V2.796H18.3V1.572H23.7ZM29.664 6.168C29.664 6.616 29.6 7.024 29.472 7.392C29.344 7.752 29.164 8.064 28.932 8.328C28.7 8.592 28.42 8.796 28.092 8.94C27.772 9.084 27.412 9.156 27.012 9.156C26.612 9.156 26.248 9.084 25.92 8.94C25.6 8.796 25.32 8.592 25.08 8.328C24.848 8.064 24.668 7.752 24.54 7.392C24.412 7.024 24.348 6.616 24.348 6.168C24.348 5.728 24.412 5.328 24.54 4.968C24.676 4.6 24.86 4.288 25.092 4.032C25.332 3.768 25.616 3.568 25.944 3.432C26.272 3.288 26.628 3.216 27.012 3.216C27.404 3.216 27.76 3.288 28.08 3.432C28.408 3.568 28.688 3.768 28.92 4.032C29.16 4.288 29.344 4.6 29.472 4.968C29.6 5.328 29.664 5.728 29.664 6.168ZM25.848 6.18C25.848 6.684 25.936 7.092 26.112 7.404C26.296 7.716 26.588 7.872 26.988 7.872C27.372 7.872 27.66 7.716 27.852 7.404C28.052 7.092 28.152 6.684 28.152 6.18C28.152 5.676 28.06 5.272 27.876 4.968C27.7 4.656 27.412 4.5 27.012 4.5C26.628 4.5 26.336 4.656 26.136 4.968C25.944 5.272 25.848 5.676 25.848 6.18Z" fill="#F8BBD0"/>
<path d="M35.7 1.572V2.796H33.744V9H32.256V2.796H30.3V1.572H35.7ZM39.012 7.944C39.172 7.944 39.328 7.944 39.48 7.944C39.632 7.936 39.764 7.924 39.876 7.908V6.612C39.78 6.596 39.664 6.584 39.528 6.576C39.392 6.56 39.268 6.552 39.156 6.552C39.004 6.552 38.856 6.564 38.712 6.588C38.568 6.604 38.44 6.636 38.328 6.684C38.224 6.732 38.14 6.8 38.076 6.888C38.012 6.976 37.98 7.092 37.98 7.236C37.98 7.492 38.076 7.676 38.268 7.788C38.46 7.892 38.708 7.944 39.012 7.944ZM38.88 3.216C39.344 3.216 39.728 3.272 40.032 3.384C40.344 3.488 40.592 3.64 40.776 3.84C40.96 4.032 41.092 4.272 41.172 4.56C41.252 4.84 41.292 5.156 41.292 5.508V8.868C41.076 8.916 40.756 8.972 40.332 9.036C39.908 9.1 39.432 9.132 38.904 9.132C38.544 9.132 38.216 9.1 37.92 9.036C37.632 8.972 37.384 8.868 37.176 8.724C36.968 8.572 36.808 8.38 36.696 8.148C36.584 7.908 36.528 7.616 36.528 7.272C36.528 6.944 36.592 6.668 36.72 6.444C36.848 6.22 37.02 6.04 37.236 5.904C37.452 5.768 37.7 5.672 37.98 5.616C38.26 5.552 38.552 5.52 38.856 5.52C39.24 5.52 39.58 5.552 39.876 5.616V5.436C39.876 5.156 39.788 4.924 39.612 4.74C39.436 4.548 39.132 4.452 38.7 4.452C38.42 4.452 38.148 4.472 37.884 4.512C37.628 4.552 37.42 4.6 37.26 4.656L37.056 3.468C37.24 3.404 37.5 3.348 37.836 3.3C38.172 3.244 38.52 3.216 38.88 3.216ZM47.604 8.76C47.58 8.776 47.524 8.804 47.436 8.844C47.356 8.884 47.248 8.928 47.112 8.976C46.976 9.016 46.808 9.052 46.608 9.084C46.416 9.116 46.196 9.132 45.948 9.132C45.268 9.132 44.772 8.932 44.46 8.532C44.148 8.124 43.992 7.532 43.992 6.756V1.968H42.432V0.744H45.468V6.864C45.468 7.248 45.544 7.508 45.696 7.644C45.848 7.78 46.04 7.848 46.272 7.848C46.568 7.848 46.816 7.808 47.016 7.728C47.216 7.648 47.348 7.596 47.412 7.572L47.604 8.76ZM50.244 5.592C50.388 5.424 50.532 5.248 50.676 5.064C50.828 4.872 50.972 4.676 51.108 4.476C51.252 4.276 51.388 4.084 51.516 3.9C51.644 3.708 51.756 3.528 51.852 3.36H53.628C53.484 3.544 53.32 3.744 53.136 3.96C52.952 4.176 52.76 4.396 52.56 4.62C52.368 4.844 52.172 5.06 51.972 5.268C51.78 5.476 51.604 5.668 51.444 5.844C51.644 6.036 51.86 6.268 52.092 6.54C52.324 6.804 52.552 7.08 52.776 7.368C53 7.656 53.204 7.944 53.388 8.232C53.58 8.52 53.732 8.776 53.844 9H52.152C52.056 8.8 51.928 8.576 51.768 8.328C51.616 8.072 51.452 7.824 51.276 7.584C51.1 7.336 50.92 7.104 50.736 6.888C50.56 6.664 50.396 6.48 50.244 6.336V9H48.756V0.924L50.244 0.672V5.592Z" fill="#3F51B5"/>
</svg>
