<svg width="38" height="7" viewBox="0 0 38 7" fill="none" xmlns="http://www.w3.org/2000/svg">
<path d="M4.368 1.72C4.368 1.904 4.352 2.064 4.32 2.2C4.352 2.328 4.368 2.488 4.368 2.68C4.368 2.864 4.352 3.024 4.32 3.16H3.84C3.872 3.288 3.888 3.448 3.888 3.64C3.888 3.824 3.872 3.984 3.84 4.12H1.44C1.472 4.248 1.488 4.408 1.488 4.6C1.488 4.784 1.472 4.944 1.44 5.08C1.472 5.208 1.488 5.368 1.488 5.56C1.488 5.744 1.472 5.904 1.44 6.04C1.472 6.168 1.488 6.328 1.488 6.52C1.488 6.704 1.472 6.864 1.44 7H0.48C0.448 6.864 0.432 6.704 0.432 6.52C0.432 6.328 0.448 6.168 0.48 6.04C0.448 5.904 0.432 5.744 0.432 5.56C0.432 5.368 0.448 5.208 0.48 5.08C0.448 4.944 0.432 4.784 0.432 4.6C0.432 4.408 0.448 4.248 0.48 4.12C0.448 3.984 0.432 3.824 0.432 3.64C0.432 3.448 0.448 3.288 0.48 3.16C0.448 3.024 0.432 2.864 0.432 2.68C0.432 2.488 0.448 2.328 0.48 2.2C0.448 2.064 0.432 1.904 0.432 1.72C0.432 1.528 0.448 1.368 0.48 1.24C0.448 1.104 0.432 0.944 0.432 0.76C0.432 0.568 0.448 0.408 0.48 0.28H3.84C3.872 0.408 3.888 0.568 3.888 0.76C3.888 0.944 3.872 1.104 3.84 1.24H4.32C4.352 1.368 4.368 1.528 4.368 1.72ZM3.36 3.16C3.328 3.024 3.312 2.864 3.312 2.68C3.312 2.488 3.328 2.328 3.36 2.2C3.328 2.064 3.312 1.904 3.312 1.72C3.312 1.528 3.328 1.368 3.36 1.24H1.44C1.472 1.368 1.488 1.528 1.488 1.72C1.488 1.904 1.472 2.064 1.44 2.2C1.472 2.328 1.488 2.488 1.488 2.68C1.488 2.864 1.472 3.024 1.44 3.16H3.36ZM9.60469 6.04C9.63669 6.168 9.65269 6.328 9.65269 6.52C9.65269 6.704 9.63669 6.864 9.60469 7H7.20469C7.17269 6.864 7.15669 6.704 7.15669 6.52C7.15669 6.328 7.17269 6.168 7.20469 6.04H7.92469C7.89269 5.904 7.87669 5.744 7.87669 5.56C7.87669 5.368 7.89269 5.208 7.92469 5.08C7.89269 4.944 7.87669 4.784 7.87669 4.6C7.87669 4.408 7.89269 4.248 7.92469 4.12C7.89269 3.984 7.87669 3.824 7.87669 3.64C7.87669 3.448 7.89269 3.288 7.92469 3.16C7.89269 3.024 7.87669 2.864 7.87669 2.68C7.87669 2.488 7.89269 2.328 7.92469 2.2C7.89269 2.064 7.87669 1.904 7.87669 1.72C7.87669 1.528 7.89269 1.368 7.92469 1.24H7.20469C7.17269 1.104 7.15669 0.944 7.15669 0.76C7.15669 0.568 7.17269 0.408 7.20469 0.28H9.60469C9.63669 0.408 9.65269 0.568 9.65269 0.76C9.65269 0.944 9.63669 1.104 9.60469 1.24H8.88469C8.91669 1.368 8.93269 1.528 8.93269 1.72C8.93269 1.904 8.91669 2.064 8.88469 2.2C8.91669 2.328 8.93269 2.488 8.93269 2.68C8.93269 2.864 8.91669 3.024 8.88469 3.16C8.91669 3.288 8.93269 3.448 8.93269 3.64C8.93269 3.824 8.91669 3.984 8.88469 4.12C8.91669 4.248 8.93269 4.408 8.93269 4.6C8.93269 4.784 8.91669 4.944 8.88469 5.08C8.91669 5.208 8.93269 5.368 8.93269 5.56C8.93269 5.744 8.91669 5.904 8.88469 6.04H9.60469ZM16.3294 5.08C16.3614 5.208 16.3774 5.368 16.3774 5.56C16.3774 5.744 16.3614 5.904 16.3294 6.04H15.8494C15.8814 6.168 15.8974 6.328 15.8974 6.52C15.8974 6.704 15.8814 6.864 15.8494 7H13.4494C13.4174 6.864 13.4014 6.704 13.4014 6.52C13.4014 6.328 13.4174 6.168 13.4494 6.04H12.9694C12.9374 5.904 12.9214 5.744 12.9214 5.56C12.9214 5.368 12.9374 5.208 12.9694 5.08H12.4894C12.4574 4.944 12.4414 4.784 12.4414 4.6C12.4414 4.408 12.4574 4.248 12.4894 4.12C12.4574 3.984 12.4414 3.824 12.4414 3.64C12.4414 3.448 12.4574 3.288 12.4894 3.16C12.4574 3.024 12.4414 2.864 12.4414 2.68C12.4414 2.488 12.4574 2.328 12.4894 2.2H12.9694C12.9374 2.064 12.9214 1.904 12.9214 1.72C12.9214 1.528 12.9374 1.368 12.9694 1.24H13.4494C13.4174 1.104 13.4014 0.944 13.4014 0.76C13.4014 0.568 13.4174 0.408 13.4494 0.28H15.8494C15.8814 0.408 15.8974 0.568 15.8974 0.76C15.8974 0.944 15.8814 1.104 15.8494 1.24H16.3294C16.3614 1.368 16.3774 1.528 16.3774 1.72C16.3774 1.904 16.3614 2.064 16.3294 2.2H15.3694C15.3374 2.064 15.3214 1.904 15.3214 1.72C15.3214 1.528 15.3374 1.368 15.3694 1.24H13.9294C13.9614 1.368 13.9774 1.528 13.9774 1.72C13.9774 1.904 13.9614 2.064 13.9294 2.2H13.4494C13.4814 2.328 13.4974 2.488 13.4974 2.68C13.4974 2.864 13.4814 3.024 13.4494 3.16C13.4814 3.288 13.4974 3.448 13.4974 3.64C13.4974 3.824 13.4814 3.984 13.4494 4.12C13.4814 4.248 13.4974 4.408 13.4974 4.6C13.4974 4.784 13.4814 4.944 13.4494 5.08H13.9294C13.9614 5.208 13.9774 5.368 13.9774 5.56C13.9774 5.744 13.9614 5.904 13.9294 6.04H15.3694C15.3374 5.904 15.3214 5.744 15.3214 5.56C15.3214 5.368 15.3374 5.208 15.3694 5.08H16.3294Z" fill="#F48FB1"/>
<path d="M20.9421 2.68C20.9421 2.864 20.9261 3.024 20.8941 3.16H20.2941C20.3261 3.288 20.3421 3.448 20.3421 3.64C20.3421 3.824 20.3261 3.984 20.2941 4.12H19.6941C19.7261 4.248 19.7421 4.408 19.7421 4.6C19.7421 4.784 19.7261 4.944 19.6941 5.08H19.0941C19.1261 5.208 19.1421 5.368 19.1421 5.56C19.1421 5.744 19.1261 5.904 19.0941 6.04H20.8941C20.9261 6.168 20.9421 6.328 20.9421 6.52C20.9421 6.704 20.9261 6.864 20.8941 7H17.5341C17.5021 6.864 17.4861 6.704 17.4861 6.52C17.4861 6.328 17.5021 6.168 17.5341 6.04H18.1341C18.1021 5.904 18.0861 5.744 18.0861 5.56C18.0861 5.368 18.1021 5.208 18.1341 5.08H18.7341C18.7021 4.944 18.6861 4.784 18.6861 4.6C18.6861 4.408 18.7021 4.248 18.7341 4.12H19.3341C19.3021 3.984 19.2861 3.824 19.2861 3.64C19.2861 3.448 19.3021 3.288 19.3341 3.16H19.9341C19.9021 3.024 19.8861 2.864 19.8861 2.68C19.8861 2.488 19.9021 2.328 19.9341 2.2C19.9021 2.064 19.8861 1.904 19.8861 1.72C19.8861 1.528 19.9021 1.368 19.9341 1.24H18.2541C18.2861 1.368 18.3021 1.528 18.3021 1.72C18.3021 1.904 18.2861 2.064 18.2541 2.2H17.5341C17.5021 2.064 17.4861 1.904 17.4861 1.72C17.4861 1.528 17.5021 1.368 17.5341 1.24H18.0141C17.9821 1.104 17.9661 0.944 17.9661 0.76C17.9661 0.568 17.9821 0.408 18.0141 0.28H20.4141C20.4461 0.408 20.4621 0.568 20.4621 0.76C20.4621 0.944 20.4461 1.104 20.4141 1.24H20.8941C20.9261 1.368 20.9421 1.528 20.9421 1.72C20.9421 1.904 20.9261 2.064 20.8941 2.2C20.9261 2.328 20.9421 2.488 20.9421 2.68Z" fill="#F8BBD0"/>
<path d="M25.4587 3.16C25.4907 3.288 25.5067 3.448 25.5067 3.64C25.5067 3.824 25.4907 3.984 25.4587 4.12H23.5387C23.5707 4.248 23.5867 4.408 23.5867 4.6C23.5867 4.784 23.5707 4.944 23.5387 5.08C23.5707 5.208 23.5867 5.368 23.5867 5.56C23.5867 5.744 23.5707 5.904 23.5387 6.04C23.5707 6.168 23.5867 6.328 23.5867 6.52C23.5867 6.704 23.5707 6.864 23.5387 7H22.5787C22.5467 6.864 22.5307 6.704 22.5307 6.52C22.5307 6.328 22.5467 6.168 22.5787 6.04C22.5467 5.904 22.5307 5.744 22.5307 5.56C22.5307 5.368 22.5467 5.208 22.5787 5.08C22.5467 4.944 22.5307 4.784 22.5307 4.6C22.5307 4.408 22.5467 4.248 22.5787 4.12C22.5467 3.984 22.5307 3.824 22.5307 3.64C22.5307 3.448 22.5467 3.288 22.5787 3.16C22.5467 3.024 22.5307 2.864 22.5307 2.68C22.5307 2.488 22.5467 2.328 22.5787 2.2C22.5467 2.064 22.5307 1.904 22.5307 1.72C22.5307 1.528 22.5467 1.368 22.5787 1.24C22.5467 1.104 22.5307 0.944 22.5307 0.76C22.5307 0.568 22.5467 0.408 22.5787 0.28H25.4587C25.4907 0.408 25.5067 0.568 25.5067 0.76C25.5067 0.944 25.4907 1.104 25.4587 1.24H23.5387C23.5707 1.368 23.5867 1.528 23.5867 1.72C23.5867 1.904 23.5707 2.064 23.5387 2.2C23.5707 2.328 23.5867 2.488 23.5867 2.68C23.5867 2.864 23.5707 3.024 23.5387 3.16H25.4587ZM31.2234 6.04C31.2554 6.168 31.2714 6.328 31.2714 6.52C31.2714 6.704 31.2554 6.864 31.2234 7H28.8234C28.7914 6.864 28.7754 6.704 28.7754 6.52C28.7754 6.328 28.7914 6.168 28.8234 6.04H29.5434C29.5114 5.904 29.4954 5.744 29.4954 5.56C29.4954 5.368 29.5114 5.208 29.5434 5.08C29.5114 4.944 29.4954 4.784 29.4954 4.6C29.4954 4.408 29.5114 4.248 29.5434 4.12C29.5114 3.984 29.4954 3.824 29.4954 3.64C29.4954 3.448 29.5114 3.288 29.5434 3.16C29.5114 3.024 29.4954 2.864 29.4954 2.68C29.4954 2.488 29.5114 2.328 29.5434 2.2C29.5114 2.064 29.4954 1.904 29.4954 1.72C29.4954 1.528 29.5114 1.368 29.5434 1.24H28.8234C28.7914 1.104 28.7754 0.944 28.7754 0.76C28.7754 0.568 28.7914 0.408 28.8234 0.28H31.2234C31.2554 0.408 31.2714 0.568 31.2714 0.76C31.2714 0.944 31.2554 1.104 31.2234 1.24H30.5034C30.5354 1.368 30.5514 1.528 30.5514 1.72C30.5514 1.904 30.5354 2.064 30.5034 2.2C30.5354 2.328 30.5514 2.488 30.5514 2.68C30.5514 2.864 30.5354 3.024 30.5034 3.16C30.5354 3.288 30.5514 3.448 30.5514 3.64C30.5514 3.824 30.5354 3.984 30.5034 4.12C30.5354 4.248 30.5514 4.408 30.5514 4.6C30.5514 4.784 30.5354 4.944 30.5034 5.08C30.5354 5.208 30.5514 5.368 30.5514 5.56C30.5514 5.744 30.5354 5.904 30.5034 6.04H31.2234ZM37.9481 5.08C37.9801 5.208 37.9961 5.368 37.9961 5.56C37.9961 5.744 37.9801 5.904 37.9481 6.04H37.4681C37.5001 6.168 37.5161 6.328 37.5161 6.52C37.5161 6.704 37.5001 6.864 37.4681 7H35.0681C35.0361 6.864 35.0201 6.704 35.0201 6.52C35.0201 6.328 35.0361 6.168 35.0681 6.04H34.5881C34.5561 5.904 34.5401 5.744 34.5401 5.56C34.5401 5.368 34.5561 5.208 34.5881 5.08H34.1081C34.0761 4.944 34.0601 4.784 34.0601 4.6C34.0601 4.408 34.0761 4.248 34.1081 4.12C34.0761 3.984 34.0601 3.824 34.0601 3.64C34.0601 3.448 34.0761 3.288 34.1081 3.16C34.0761 3.024 34.0601 2.864 34.0601 2.68C34.0601 2.488 34.0761 2.328 34.1081 2.2H34.5881C34.5561 2.064 34.5401 1.904 34.5401 1.72C34.5401 1.528 34.5561 1.368 34.5881 1.24H35.0681C35.0361 1.104 35.0201 0.944 35.0201 0.76C35.0201 0.568 35.0361 0.408 35.0681 0.28H37.4681C37.5001 0.408 37.5161 0.568 37.5161 0.76C37.5161 0.944 37.5001 1.104 37.4681 1.24H37.9481C37.9801 1.368 37.9961 1.528 37.9961 1.72C37.9961 1.904 37.9801 2.064 37.9481 2.2H36.9881C36.9561 2.064 36.9401 1.904 36.9401 1.72C36.9401 1.528 36.9561 1.368 36.9881 1.24H35.5481C35.5801 1.368 35.5961 1.528 35.5961 1.72C35.5961 1.904 35.5801 2.064 35.5481 2.2H35.0681C35.1001 2.328 35.1161 2.488 35.1161 2.68C35.1161 2.864 35.1001 3.024 35.0681 3.16C35.1001 3.288 35.1161 3.448 35.1161 3.64C35.1161 3.824 35.1001 3.984 35.0681 4.12C35.1001 4.248 35.1161 4.408 35.1161 4.6C35.1161 4.784 35.1001 4.944 35.0681 5.08H35.5481C35.5801 5.208 35.5961 5.368 35.5961 5.56C35.5961 5.744 35.5801 5.904 35.5481 6.04H36.9881C36.9561 5.904 36.9401 5.744 36.9401 5.56C36.9401 5.368 36.9561 5.208 36.9881 5.08H37.9481Z" fill="#3F51B5"/>
</svg>
